<?xml version="1.0" encoding="UTF-8"?>
<svg id="Calque_1" xmlns="http://www.w3.org/2000/svg" version="1.1" viewBox="0 0 2500 2438">
  <!-- Generator: Adobe Illustrator 29.2.1, SVG Export Plug-In . SVG Version: 2.1.0 Build 116)  -->
  <path d="M889.6,1086.7c-10.4-32.3-19.8-63.5-30.2-95.8s-19.8-62.5-28.1-92.7c-8.3-29.2-15.6-56.2-22.9-81.2h-2.1c-9.4,44.8-20.8,89.6-35.4,134.4-15.6,50-31.2,102.1-47.9,154.2-13.5,53.1-30.2,102.1-45.8,145.8h264.6c-6.2-21.9-14.6-47.9-24-75-9.4-28.1-18.8-58.3-28.1-89.6Z"/>
  <path d="M1779.2,1058.6c-57.3-3.1-111.5,27.1-138.5,79.2-12.5,24-19.8,49-22.9,75h0s219.8,0,219.8,0c27.1,0,46.9,0,59.4-1,8.3-1,16.7-3.1,24-8.3v-10.4c0-13.5-2.1-26-6.2-38.5-18.8-58.3-74-97.9-135.4-95.8Z"/>
  <path d="M2057.3.2H442.7C197.9.2,0,198.2,0,443v1552.1c0,244.8,197.9,442.7,442.7,442.7h1614.6c244.8,0,442.7-197.9,442.7-442.7V443C2500,198.2,2302.1.2,2057.3.2ZM1324,1714.8h-217.7c-7.3,1-14.6-4.2-16.7-11.5l-85.4-250v5.2h0s-387.5,0-387.5,0l-79.2,245.8c-2.1,9.4-10.4,15.6-19.8,14.6h-195.8c-11.5,0-14.6-6.2-11.5-18.8l335.4-961.5c3.1-10.4,6.2-19.8,10.4-32.3,4.2-21.9,6.2-44.8,6.2-67.7-1-5.2,3.1-10.4,8.3-11.5h269.8c7.3,0,12.5,3.1,13.5,8.3l380.2,1062.5c3.1,11.5,0,16.7-10.4,16.7ZM2137.5,1306.5c-2.1,19.8-3.1,34.4-4.2,43.8-1,7.3-7.3,13.5-14.6,13.5s-17.7,1-34.4,2.1c-16.7,2.1-36.5,3.1-60.4,3.1s-49-4.2-76-4.2h0s-330.2,0-330.2,0c4.2,32.3,14.6,64.6,32.3,92.7,18.8,28.1,44.8,50,76,62.5,41.7,17.7,87.5,27.1,133.3,26,36.5-1,72.9-4.2,108.3-11.5,32.3-4.2,63.5-12.5,92.7-24,5.2-4.2,8.3-2.1,8.3,8.3v159.4c0,4.2-1,8.3-2.1,12.5-2.1,3.1-4.2,5.2-7.3,7.3-33.3,14.6-67.7,25-104.2,31.2-49,9.4-97.9,13.5-147.9,12.5-79.2,0-145.8-12.5-200-36.5-51-21.9-95.8-56.2-131.2-99-33.3-40.6-57.3-86.5-71.9-136.5-14.6-49-21.9-100-21.9-152.1s8.3-111.5,26-165.6c16.7-52.1,42.7-100,78.1-142.7,34.4-41.7,77.1-75,126-99s107.3-32.3,174-32.3c55.2-1,110.4,9.4,161.5,32.3,42.7,18.8,80.2,46.9,109.4,83.3,27.1,35.4,49,75,62.5,118.8,13.5,41.7,19.8,84.4,19.8,127.1s-1,46.9-2.1,66.7Z"/>
</svg>