<?xml version="1.0" encoding="UTF-8"?>
<svg id="Calque_1" xmlns="http://www.w3.org/2000/svg" version="1.1" viewBox="0 0 703.7 703.7">
  <!-- Generator: Adobe Illustrator 29.2.1, SVG Export Plug-In . SVG Version: 2.1.0 Build 116)  -->
  <path d="M249.5,381.1h74.2c-12.2-41.7-25.9-82.8-37.1-124.7-12,42.1-25.2,83.9-37.1,124.7Z"/>
  <path d="M684.6,88.3c-15.2-29.8-39.4-54-69.2-69.2C581.5,1.9,537.2,1.9,448.5,1.9h-193.3c-88.7,0-133,0-166.9,17.3-29.8,15.2-54,39.4-69.2,69.2C1.9,122.2,1.9,166.5,1.9,255.2v193.3c0,88.7,0,133,17.3,166.9,15.2,29.8,39.4,54,69.2,69.2,33.9,17.3,78.2,17.3,166.9,17.3h193.3c88.7,0,133,0,166.9-17.3,29.8-15.2,54-39.4,69.2-69.2,17.3-33.9,17.3-78.2,17.3-166.9v-193.3c0-88.7,0-133-17.3-166.9ZM430.8,516.4h-61c-2.1.2-4.2-1.2-4.7-3.4l-24-71.3h-108.5l-22.1,70.3c-.6,2.6-3,4.5-5.6,4.3h-54.9c-3.1,0-4.2-1.8-3.3-5.3l93.9-277.4c.9-2.9,1.9-6.2,2.8-9.9,1.2-6.4,1.9-13,1.9-19.5-.3-1.9,1.4-3.6,3.3-3.4h74.7c2.2,0,3.4.8,3.8,2.4l106.6,308.2c.9,3.2,0,4.8-2.8,4.8ZM529.9,511.6c0,3.2-1.3,4.8-3.8,4.8h-57.3c-2.8,0-4.2-1.6-4.2-4.8v-230.2c0-2.9,1.2-4.3,3.8-4.3h57.8c2.5,0,3.8,1.4,3.8,4.3v230.2ZM531.7,228.7c-1.7,4.7-4.4,9-7.8,12.7-3.5,3.6-7.8,6.4-12.4,8.2-4.6,1.8-9.6,2.6-14.6,2.4-4.8.2-9.6-.6-14-2.5-4.4-1.8-8.5-4.6-11.8-8.1-3.3-3.7-5.9-8-7.6-12.7-1.7-4.7-2.5-9.7-2.3-14.7-.2-5,.7-9.9,2.5-14.5,1.8-4.6,4.6-8.8,8.1-12.2,3.5-3.4,7.5-6.1,12-7.9,4.5-1.8,9.2-2.6,14-2.5,11.3,0,20.1,3.5,26.5,10.4,3.2,3.6,5.8,7.8,7.4,12.4,1.6,4.6,2.4,9.5,2.2,14.3.2,5-.6,10.1-2.3,14.8Z"/>
</svg>