<?xml version="1.0" encoding="UTF-8"?>
<svg id="Calque_1" xmlns="http://www.w3.org/2000/svg" version="1.1" viewBox="0 0 2500 2438">
  <!-- Generator: Adobe Illustrator 29.2.1, SVG Export Plug-In . SVG Version: 2.1.0 Build 116)  -->
  <path d="M2057.3.2H442.7C197.9.2,0,198.1,0,442.9v1552.3c0,244.7,197.9,442.7,442.7,442.7h1614.7c244.7,0,442.7-197.9,442.7-442.7V442.9C2500,198.1,2302.1.2,2057.3.2ZM920.4,1526.1l-27.3,181.4c-1,5.9-2.9,10.7-5.9,12.7-2.9,2-6.8,2.9-9.8,2.9h0s-594.8,0-594.8,0c-10.7,0-14.6-5.9-14.6-18.5V639.8c0-10.7,3.9-14.6,13.7-14.6h184.3c6.8,0,10.7,3.9,10.7,11.7v874.6h432.9c9.8,0,12.7,4.9,10.7,14.6ZM1475.2,1090.3c0,8.8-4.9,11.7-14.6,11.7-33.2-1.9-66.3,0-98.5,6.8-27.3,5.9-52.7,15.6-78,28.3-18.5,9.8-36.1,23.4-50.7,39v531.4c0,10.7-3.9,14.6-12.7,14.6h-181.4c-10.7,0-14.6-4.9-14.6-16.6v-577.2c0-25.4,0-50.7-1-78,0-27.3-1-54.6-2-80.9-1-23.4-2.9-45.8-5.9-69.2,0-2.9,0-5.9,2-9.8,2.9-1,4.9-2,7.8-1h0s164.8,0,164.8,0c9.8,0,15.6,4.9,19.5,16.6,2.9,6.8,5.9,15.6,6.8,24.4,2,10.7,2.9,21.5,3.9,32.2,1,11.7,1,24.4,1,37.1,27.3-35.1,61.4-66.3,100.4-89.7,41.9-25.4,90.7-39,139.4-37.1,9.8,0,13.7,4.9,13.7,14.6v202.8ZM1751.2,1221c-1,41.9,4.9,81.9,16.6,121.9,10.7,32.2,26.3,62.4,45.8,89.7,17.6,24.4,39,44.9,65.3,60.5,24.4,14.6,50.7,26.3,79,33.2,25.4,7.8,53.6,11.7,80.9,11.7s60.5-1,90.7-3.9c25.4-2.9,49.7-8.8,73.1-17.6,7.8-5.9,13.7-2.9,16.6-1,3.9,3.9,5.9,10.7,4.9,15.6v155c1,12.7-4.9,23.4-15.6,28.3-27.3,9.8-55.6,17.6-84.8,20.5-35.1,4.9-71.2,6.8-107.3,6.8s-103.4-6.8-152.1-20.5c-47.8-12.7-92.6-34.1-132.6-62.4-40-28.3-74.1-62.4-102.4-103.4-30.2-43.9-51.7-91.7-66.3-142.4-16.6-60.5-24.4-121.9-23.4-183.3,0-102.4,19.5-194,60.5-271.1,39-76.1,99.5-139.4,172.6-182.3,73.1-42.9,162.8-64.4,265.2-64.4s71.2,2,106.3,5.9c24.4,2.9,48.8,7.8,70.2,17.6h0c8.8,5.9,12.7,14.6,12.7,25.4v162.8c1,5.9-2,11.7-5.9,15.6-3.9,1.9-9.8,1.9-13.7,0-24.4-12.7-48.8-21.5-75.1-25.4-32.2-6.8-65.3-8.8-97.5-8.8-53.6-1-106.3,12.7-152.1,40-41.9,26.3-76.1,64.4-97.5,109.2-23.4,51.7-35.1,109.2-34.1,166.7Z"/>
</svg>