<?xml version="1.0" encoding="UTF-8"?>
<svg id="Calque_1" xmlns="http://www.w3.org/2000/svg" version="1.1" viewBox="0 0 2500 2500">
  <!-- Generator: Adobe Illustrator 29.2.1, SVG Export Plug-In . SVG Version: 2.1.0 Build 116)  -->
  <defs>
    <style>
      .st0 {
        fill: #61dafb;
      }

      .st1 {
        display: none;
      }
    </style>
  </defs>
  <path d="M2344.8,0H155.2C69.5,0,0,69.5,0,155.2v2189.7c0,85.7,69.5,155.2,155.2,155.2h2189.7c85.7,0,155.2-69.5,155.2-155.2V155.2c0-85.7-69.5-155.2-155.2-155.2ZM2197.3,2179.9c-18-6.4-27.1-23.2-41.2-33.5-28.4-19.3-56.7-42.5-85-60.6-49-30.9-105.7-49-155.9-79.9-28.3-18-55.4-38.7-82.5-59.3-24.5-18-51.5-52.8-67-78.6-9-14.2-10.3-30.9-20.6-41.2,2.6-24.5,33.5-24.5,52.8-32.2,67-28.3,146.9-38.7,250-36.1-3.9-25.8-68.3-58-88.9-73.4-41.2-29.6-85-60.6-128.9-87.6-23.2-14.2-63.1-24.5-88.9-36.1-34.8-14.2-112.1-28.4-131.4-55.4-38.7-50.3-64.4-112.1-91.5-172.7-27-61.8-60.5-126.3-87.6-189.4-14.2-30.9-20.6-58-36.1-87.6-94.1-181.7-233.2-333.7-402-440.7-55.4-34.8-117.3-67-185.6-88.9-38.7-11.6-85-5.2-126.3-14.2h-27.1c-23.2-6.4-42.5-30.9-60.6-43.8-39.9-27.1-79.9-45.1-127.6-64.4-16.7-7.7-64.4-25.8-81.2-11.6-10.3,2.6-15.5,6.4-18,16.7-10.3,15.5-1.3,38.7,5.2,52.8,19.3,41.2,46.4,65.7,70.9,100.5,21.9,30.9,49,65.7,64.4,99.2,33.5,72.2,49,152.1,79.9,224.2,11.6,27.1,29.6,58,46.4,82.5,14.2,19.3,39.9,33.5,47.7,58,15.5,25.8-23.2,110.8-32.2,137.9-33.5,105.7-27.1,252.6,11.6,344,15.5,36.1,29.6,78.6,70.9,88.9,2.6-2.6,0-1.3,5.2-2.6,9-70.9,11.6-139.2,36.1-194.6,14.2-34.8,42.5-59.3,61.8-87.6,12.9,7.7,12.9,30.9,20.6,46.4,16.7,39.9,34.8,83.8,55.4,123.7,42.5,82.5,90.2,162.4,144.3,234.5,18,25.8,43.8,54.1,67,77.3,10.3,9,21.9,14.2,29.6,25.8h2.6v3.9c-38.7-14.2-63.1-54.1-94.1-77.3-58-43.8-127.6-109.5-167.5-172.7-16.8-36.1-34.8-70.9-52.8-106.9v-2.6c-7.7,10.3-5.1,20.6-9,36.1-16.7,64.4-3.9,137.9-61.8,161.1-65.7,27.1-114.7-43.8-135.3-76-65.7-106.9-83.8-287.3-37.4-432.9,10.3-32.2,11.6-70.9,29.6-96.6-3.9-23.2-21.9-29.6-32.2-43.8-18-24.5-33.5-52.8-47.7-79.9-27.1-52.8-46.4-116-67-172.7-9-23.2-11.6-46.4-20.6-68.3-15.5-33.5-43.8-67-65.7-96.6-29.6-42.5-116-125-81.2-208.7,54.1-132.7,243.5-32.2,317,14.2,18,11.6,38.7,36.1,59.3,45.1,32.2,1.3,64.4,3.9,96.6,5.2,60.6,14.2,117.3,25.8,164.9,52.8,221.6,130.2,365.9,262.9,498.7,481.9,28.4,46.4,42.5,96.6,65.7,146.9,32.2,74.7,68.3,153.3,105.7,224.2,16.7,33.5,29.6,70.9,52.8,99.2,9,12.9,34.8,16.7,50.2,24.5,42.5,21.9,94.1,38.7,134,64.4,74.7,46.4,146.9,101.8,212.6,158.5,24.5,21.9,41.2,52.8,64.4,76v11.6c-20.6,6.4-41.2,12.9-61.8,18-45.1,11.6-85,9-128.9,20.6-27.1,7.7-60.6,18-88.9,20.6,1.3,1.3,2.6,2.6,2.6,2.6,16.7,47.7,107,86.3,148.2,114.7,50.3,36.1,96.6,79.9,134,130.1,12.9,12.9,25.8,24.5,38.7,37.4,9,12.9,11.6,29.6,20.6,41.2v3.9ZM783.7,695.5c0,30.9-9,51.5-27.1,64.4,0,0-1.3,1.3-2.6,2.6-10.3-20.6-19.3-41.2-29.6-61.9-12.9-18-30.9-32.2-41.2-52.8h-2.6v-2.6c15.5-3.9,30.9-6.5,52.8-6.5,10.3,10.3,27.1,16.8,34.8,29.6,6.4,9,7.7,18,15.5,27.1Z"/>
  <g class="st1">
    <path class="st0" d="M2352.3,1250.2c0-145.3-182-283.1-461.1-368.5,64.4-284.4,35.8-510.7-90.3-583.2-29.1-17-63.1-25-100.2-25v99.7c20.6,0,37.1,4,51,11.6,60.8,34.9,87.2,167.7,66.6,338.5-4.9,42-13,86.3-22.8,131.5-87.7-21.5-183.4-38-284-48.7-60.4-82.7-123-157.9-186-223.6,145.8-135.5,282.6-209.7,375.7-209.7v-99.7c-123,0-284,87.7-446.8,239.7-162.8-151.2-323.8-237.9-446.8-237.9v99.7c92.6,0,229.9,73.8,375.7,208.4-62.6,65.7-125.2,140.4-184.7,223.2-101.1,10.7-196.8,27.3-284.4,49.2-10.3-44.7-17.9-88.1-23.3-129.7-21-170.8,4.9-303.7,65.3-339,13.4-8,30.9-11.6,51.4-11.6v-99.7c-37.6,0-71.6,8-101.1,25-125.7,72.4-153.8,298.3-89,581.8-278.2,85.9-459.3,223.2-459.3,368.1s182,283.1,461.1,368.5c-64.4,284.4-35.8,510.7,90.3,583.2,29.1,17,63.1,25,100.6,25,123,0,284-87.7,446.8-239.7,162.8,151.2,323.8,237.9,446.8,237.9s71.6-8,101.1-25c125.7-72.4,153.8-298.3,89-581.8,277.3-85.4,458.4-223.2,458.4-368.1h0ZM1770,951.9c-16.5,57.7-37.1,117.2-60.4,176.6-18.3-35.8-37.6-71.6-58.6-107.3-20.6-35.8-42.5-70.7-64.4-104.6,63.5,9.4,124.8,21,183.4,35.3h0ZM1565.2,1428.2c-34.9,60.4-70.7,117.6-107.8,170.8-66.6,5.8-134.2,8.9-202.1,8.9s-135.1-3.1-201.2-8.5c-37.1-53.2-73.3-110-108.2-169.9-34-58.6-64.8-118.1-93-178,27.7-59.9,59-119.9,92.6-178.4,34.9-60.4,70.7-117.6,107.8-170.8,66.6-5.8,134.2-8.9,202.1-8.9s135.1,3.1,201.2,8.5c37.1,53.2,73.3,110,108.2,169.9,34,58.6,64.8,118.1,93,178-28.2,59.9-59,119.9-92.6,178.4h0ZM1709.6,1370.1c24.1,59.9,44.7,119.9,61.7,178-58.6,14.3-120.3,26.4-184.2,35.8,21.9-34.4,43.8-69.8,64.4-106,20.6-35.8,39.8-72,58.1-107.8h0ZM1256.2,1847.2c-41.6-42.9-83.2-90.8-124.3-143.1,40.2,1.8,81.4,3.1,123,3.1s83.6-.9,124.3-3.1c-40.2,52.3-81.8,100.2-123,143.1ZM923.4,1583.8c-63.5-9.4-124.8-21-183.4-35.3,16.5-57.7,37.1-117.2,60.4-176.6,18.3,35.8,37.6,71.6,58.6,107.3s42.5,70.7,64.4,104.6ZM1253.9,653.2c41.6,42.9,83.2,90.8,124.3,143.1-40.2-1.8-81.4-3.1-123-3.1s-83.6.9-124.3,3.1c40.2-52.3,81.8-100.2,123-143.1ZM923,916.6c-21.9,34.4-43.8,69.8-64.4,106-20.6,35.8-39.8,71.6-58.1,107.3-24.1-59.9-44.7-119.9-61.7-178,58.6-13.9,120.3-25.9,184.2-35.3h0ZM518.3,1476.5c-158.3-67.5-260.7-156.1-260.7-226.3s102.4-159.2,260.7-226.3c38.5-16.5,80.5-31.3,123.9-45.2,25.5,87.7,59,178.9,100.6,272.3-41.1,93-74.2,183.8-99.3,271-44.3-13.9-86.3-29.1-125.2-45.6h0ZM758.9,2115.6c-60.8-34.9-87.2-167.7-66.6-338.5,4.9-42,13-86.3,22.8-131.5,87.7,21.5,183.4,38,284,48.7,60.4,82.7,123,157.9,186,223.6-145.8,135.5-282.6,209.7-375.7,209.7-20.1-.4-37.1-4.5-50.5-12.1h0ZM1819.6,1774.8c21,170.8-4.9,303.7-65.3,339-13.4,8-30.9,11.6-51.4,11.6-92.6,0-229.9-73.8-375.7-208.4,62.6-65.7,125.2-140.4,184.7-223.2,101.1-10.7,196.8-27.3,284.4-49.2,10.3,45.2,18.3,88.5,23.3,130.1ZM1991.8,1476.5c-38.5,16.5-80.5,31.3-123.9,45.2-25.5-87.7-59-178.9-100.6-272.3,41.1-93,74.2-183.8,99.3-271,44.3,13.9,86.3,29.1,125.7,45.6,158.3,67.5,260.7,156.1,260.7,226.3-.4,70.2-102.9,159.2-261.2,226.3h0Z"/>
    <circle class="st0" cx="1254.8" cy="1250.2" r="204.4"/>
  </g>
</svg>