<?xml version="1.0" encoding="UTF-8"?>
<svg id="Calque_1" xmlns="http://www.w3.org/2000/svg" version="1.1" viewBox="0 0 2500 2438">
  <!-- Generator: Adobe Illustrator 29.2.1, SVG Export Plug-In . SVG Version: 2.1.0 Build 116)  -->
  <path d="M2057.3.2H442.7C197.9.2,0,198.2,0,443v1552.1c0,244.8,197.9,442.7,442.7,442.7h1614.6c244.8,0,442.7-197.9,442.7-442.7V443C2500,198.2,2302.1.2,2057.3.2ZM1318.8,1211.7c-41.7,58.3-100,102.1-167.7,127.1-70.8,26-149,35.4-234.4,35.4s-41.7,0-52.1-1c-10.4-1-25-1-44.8-1v334.4c1,7.3-4.2,13.5-11.5,14.6h-202.1c-8.3,0-12.5-4.2-12.5-13.5V635.7c0-7.3,3.1-11.5,10.4-11.5,17.7,0,34.4,0,58.3-1,25-1,51-1,79.2-2.1,28.1-1,58.3-1,90.6-2.1,32.3-1,63.5-1,94.8-1,85.4,0,156.2,10.4,214.6,32.3,52.1,17.7,100,46.9,139.6,85.4,33.3,33.3,59.4,74,76,118.8,15.6,43.8,24,88.5,24,135.4,0,89.6-20.8,163.5-62.5,221.9ZM2033.3,1088.8c0,8.3-5.2,11.5-16.7,11.5-37.5-1-76,2.1-112.5,10.4-30.2,6.2-59.4,15.6-87.5,28.1-19.8,9.4-38.5,21.9-53.1,38.5v531.2c0,10.4-4.2,14.6-13.5,14.6h-205.2c-8.3,1-15.6-4.2-16.7-12.5v-581.2c0-25,0-51-1-78.1-1-27.1-1-54.2-2.1-81.2,0-24-2.1-46.9-4.2-70.8-1-5.2,2.1-10.4,7.3-11.5,0-1,2.1-1,3.1,0h0s182.3,0,182.3,0c10.4,0,18.8,7.3,21.9,16.7,3.1,8.3,5.2,16.7,6.3,26,2.1,10.4,4.2,21.9,5.2,32.3,1,11.5,2.1,24,2.1,37.5,31.2-36.5,68.8-66.7,111.5-89.6,47.9-27.1,103.1-40.6,158.3-40.6,7.3-1,13.5,4.2,14.6,11.5v207.3Z"/>
  <path d="M1057.3,845c-38.5-15.6-80.2-21.9-122.9-20.8-27.1,0-51,0-70.8,1-20.8-1-35.4,0-42.7,1h0v350c14.6,1,28.1,2.1,40.6,2.1h55.2c40.6,0,81.3-6.2,119.8-18.8,33.3-9.4,62.5-29.2,85.4-55.2,21.9-26,32.3-61.5,32.3-107.3,1-32.3-7.3-64.6-24-92.7-17.7-27.1-42.7-47.9-72.9-59.4Z"/>
</svg>