<?xml version="1.0" encoding="UTF-8"?>
<svg id="Calque_1" xmlns="http://www.w3.org/2000/svg" version="1.1" viewBox="0 0 2500 2438">
  <!-- Generator: Adobe Illustrator 29.2.1, SVG Export Plug-In . SVG Version: 2.1.0 Build 116)  -->
  <path d="M1026,846.1c-38.5-15.6-80.2-21.9-122.9-20.8-27.1,0-51,0-70.8,1-20.8-1-35.4,0-42.7,1h0v350c14.6,1,28.1,2.1,40.6,2.1h55.2c40.6,0,81.3-6.2,119.8-18.8,33.3-9.4,62.5-29.2,85.4-55.2,21.9-26,32.3-61.5,32.3-107.3,1-32.3-7.3-64.6-24-92.7-17.7-27.1-42.7-47.9-72.9-59.4Z"/>
  <path d="M2057.3.2H442.7C197.9.2,0,198.2,0,443v1552.1c0,244.8,197.9,442.7,442.7,442.7h1614.6c244.8,0,442.7-197.9,442.7-442.7V443C2500,198.2,2302.1.2,2057.3.2ZM1287.5,1213.8c-41.7,58.3-100,102.1-167.7,127.1-70.8,26-149,35.4-234.4,35.4s-41.7,0-52.1-1c-10.4-1-25-1-44.8-1v334.4c1,7.3-4.2,13.5-11.5,14.6h-202.1c-8.3,0-12.5-4.2-12.5-13.5V637.8c0-7.3,3.1-11.5,10.4-11.5,17.7,0,34.4,0,58.3-1,25-1,51-1,79.2-2.1,28.1-1,58.3-1,90.6-2.1s63.5-1,94.8-1c85.4,0,156.2,10.4,214.6,32.3,52.1,17.7,100,46.9,139.6,85.4,33.3,33.3,59.4,74,76,118.8,15.6,43.8,24,88.5,24,135.4,0,89.6-20.8,163.5-62.5,221.9ZM2026,1619c-29.2,41.7-69.8,74-116.7,92.7-51,21.9-113.5,33.3-188.5,33.3s-94.8-4.2-141.7-13.5c-36.5-6.3-72.9-17.7-106.2-33.3-7.3-4.2-12.5-11.5-11.5-19.8v-181.2c0-3.1,1-7.3,4.2-9.4,3.1-2.1,6.2-1,9.4,1,40.6,24,83.3,40.6,129.2,51,39.6,10.4,81.2,15.6,122.9,15.6s67.7-5.2,86.5-14.6c16.7-7.3,28.1-25,28.1-43.7s-8.3-28.1-25-41.7c-16.7-13.5-51-29.2-102.1-49-53.1-18.8-102.1-43.8-147.9-75-32.3-22.9-59.4-53.1-79.2-88.5-16.7-33.3-25-69.8-24-106.2,0-44.8,12.5-87.5,35.4-126,26-41.7,64.6-75,109.4-95.8,49-25,110.4-36.5,184.4-36.5s86.5,3.1,129.2,9.4c31.2,4.2,61.5,12.5,89.6,24,4.2,1,8.3,5.2,10.4,9.4,1,4.2,2.1,8.3,2.1,12.5v169.8c0,4.2-2.1,8.3-5.2,10.4-9.4,2.1-14.6,2.1-18.8,0h0c-31.2-16.7-64.6-28.1-100-35.4-38.5-8.3-77.1-13.5-116.7-13.5-20.8-1-42.7,2.1-62.5,7.3-13.5,3.1-25,10.4-32.3,20.8-5.2,8.3-8.3,18.8-8.3,28.1s4.2,18.8,10.4,27.1c9.4,11.5,21.9,20.8,35.4,28.1,24,12.5,49,24,74,34.4,56.2,18.8,110.4,44.8,160.4,76,34.4,21.9,62.5,51,82.3,86.5,16.7,33.3,25,69.8,24,107.3,1,49-13.5,97.9-40.6,138.5Z"/>
</svg>