<?xml version="1.0" encoding="UTF-8"?>
<svg id="Calque_1" xmlns="http://www.w3.org/2000/svg" version="1.1" viewBox="0 0 2500 2500">
  <!-- Generator: Adobe Illustrator 29.2.1, SVG Export Plug-In . SVG Version: 2.1.0 Build 116)  -->
  <defs>
    <style>
      .st0 {
        fill: #fff;
      }

      .st1 {
        display: none;
      }
    </style>
  </defs>
  <g class="st1">
    <path class="st0" d="M2047.8,1758.5c-103.1-2.6-183,7.7-250,36.1-19.3,7.7-50.3,7.7-52.8,32.2,10.3,10.3,11.6,27.1,20.6,41.2,15.5,25.8,42.5,60.6,67,78.6,27.1,20.6,54.1,41.2,82.5,59.3,50.3,30.9,107,49,155.9,79.9,28.4,18,56.7,41.2,85,60.6,14.2,10.3,23.2,27.1,41.2,33.5v-3.9c-9-11.6-11.6-28.4-20.6-41.2-12.9-12.9-25.8-24.5-38.7-37.4-37.4-50.2-83.8-94.1-134-130.1-41.2-28.4-131.4-67-148.2-114.7,0,0-1.3-1.3-2.6-2.6,28.3-2.6,61.8-12.9,88.9-20.6,43.8-11.6,83.8-9,128.9-20.6,20.6-5.2,41.2-11.6,61.8-18v-11.6c-23.2-23.2-39.9-54.1-64.4-76-65.7-56.7-137.9-112.1-212.6-158.5-39.9-25.8-91.5-42.5-134-64.4-15.4-7.7-41.2-11.6-50.2-24.5-23.2-28.3-36.1-65.7-52.8-99.2-37.4-70.9-73.4-149.5-105.7-224.2-23.2-50.3-37.4-100.5-65.7-146.9-132.7-219.1-277-351.8-498.7-481.9-47.7-27.1-104.4-38.7-164.9-52.8-32.2-1.3-64.4-3.9-96.6-5.2-20.6-9-41.2-33.5-59.3-45.1-73.4-46.4-262.9-146.9-317-14.2-34.8,83.8,51.5,166.2,81.2,208.7,21.9,29.6,50.3,63.1,65.7,96.6,9,21.9,11.6,45.1,20.6,68.3,20.6,56.7,39.9,119.8,67,172.7,14.2,27.1,29.6,55.4,47.7,79.9,10.3,14.2,28.3,20.6,32.2,43.8-18,25.8-19.3,64.4-29.6,96.6-46.4,145.6-28.3,326,37.4,432.9,20.6,32.2,69.6,103.1,135.3,76,58-23.2,45.1-96.6,61.8-161.1,3.9-15.5,1.3-25.8,9-36.1v2.6c18,36.1,36.1,70.9,52.8,106.9,39.9,63.1,109.5,128.9,167.5,172.7,30.9,23.2,55.4,63.1,94.1,77.3v-3.9h-2.6c-7.7-11.6-19.3-16.7-29.6-25.8-23.2-23.2-49-51.5-67-77.3-54.1-72.2-101.8-152.1-144.3-234.5-20.6-39.9-38.7-83.8-55.4-123.7-7.7-15.5-7.7-38.7-20.6-46.4-19.3,28.3-47.7,52.8-61.8,87.6-24.5,55.4-27.1,123.7-36.1,194.6-5.2,1.3-2.6,0-5.2,2.6-41.2-10.3-55.4-52.8-70.9-88.9-38.7-91.5-45.1-238.4-11.6-344,9-27.1,47.7-112.1,32.2-137.9-7.7-24.5-33.5-38.7-47.7-58-16.7-24.5-34.8-55.4-46.4-82.5-30.9-72.2-46.4-152.1-79.9-224.2-15.5-33.5-42.5-68.3-64.4-99.2-24.5-34.8-51.5-59.3-70.9-100.5-6.4-14.2-15.5-37.4-5.2-52.8,2.6-10.3,7.7-14.2,18-16.7,16.8-14.2,64.4,3.9,81.2,11.6,47.7,19.3,87.6,37.4,127.6,64.4,18,12.9,37.4,37.4,60.6,43.8h27.1c41.2,9,87.6,2.6,126.3,14.2,68.3,21.9,130.1,54.1,185.6,88.9,168.8,106.9,308,259,402,440.7,15.5,29.6,21.9,56.7,36.1,87.6,27.1,63.1,60.6,127.6,87.6,189.4,27.1,60.6,52.8,122.4,91.5,172.7,19.3,27,96.6,41.2,131.4,55.4,25.8,11.6,65.7,21.9,88.9,36.1,43.8,27,87.6,58,128.9,87.6,20.6,15.5,85,47.7,88.9,73.4h0Z"/>
    <path class="st0" d="M733.5,638.8c-21.9,0-37.4,2.6-52.8,6.5v2.6h2.6c10.3,20.6,28.3,34.8,41.2,52.8,10.3,20.6,19.3,41.2,29.6,61.9,1.3-1.3,2.6-2.6,2.6-2.6,18-12.9,27.1-33.5,27.1-64.4-7.7-9-9-18-15.5-27.1-7.7-12.9-24.5-19.3-34.8-29.6h0Z"/>
  </g>
  <g>
    <path d="M1770,951.9c-58.6-14.3-119.9-25.9-183.4-35.3,21.9,34,43.8,68.9,64.4,104.6,21,35.8,40.2,71.6,58.6,107.3,23.3-59.5,43.8-119,60.4-176.6h0Z"/>
    <path d="M1255.3,793.2c41.6,0,82.7,1.3,123,3.1-41.1-52.3-82.7-100.2-124.3-143.1-41.1,42.9-82.7,90.8-123,143.1,40.7-2.2,82.3-3.1,124.3-3.1Z"/>
    <path d="M1709.6,1370.1h0c-18.3,35.8-37.6,72-58.1,107.8-20.6,36.2-42.5,71.6-64.4,106,64-9.4,125.7-21.5,184.2-35.8-17-58.1-37.6-118.1-61.7-178Z"/>
    <path d="M1795.5,854.9c9.8-45.2,17.9-89.4,22.8-131.5,20.6-170.8-5.8-303.7-66.6-338.5-13.9-7.6-30.4-11.6-51-11.6v-.4c-93,.2-229.6,74.4-375.2,209.7,63.1,65.7,125.7,140.9,186,223.6,100.6,10.7,196.3,27.3,284,48.7Z"/>
    <path d="M1657.8,1249.8c-28.2-59.9-59-119.4-93-178-34.9-59.9-71.1-116.7-108.2-169.9-66.2-5.4-133.7-8.5-201.2-8.5s-135.5,3.1-202.1,8.9c-37.1,53.2-72.9,110.5-107.8,170.8-33.5,58.6-64.8,118.5-92.6,178.4,28.2,59.9,59,119.4,93,178,34.9,59.9,71.1,116.7,108.2,169.9,66.2,5.4,133.7,8.5,201.2,8.5s135.5-3.1,202.1-8.9c37.1-53.2,72.9-110.5,107.8-170.8h0c33.5-58.6,64.4-118.5,92.6-178.4ZM1254.8,1454.6c-112.9,0-204.4-91.5-204.4-204.4s91.5-204.4,204.4-204.4,204.4,91.5,204.4,204.4-91.5,204.4-204.4,204.4Z"/>
    <path d="M714.1,855.3c87.7-21.9,183.4-38.5,284.4-49.2,59.5-82.7,122.1-157.4,184.7-223.2-145.8-134.6-283.1-208.4-375.7-208.4v.4c-20.6,0-38,3.6-51.4,11.6-60.4,35.3-86.3,168.2-65.3,339,5.4,41.6,13,85,23.3,129.7Z"/>
    <path d="M923.4,1583.8c-21.9-34-43.4-68.9-64.4-104.6-21-35.8-40.2-71.6-58.6-107.3-23.3,59.5-43.8,119-60.4,176.6,58.6,14.3,119.9,25.9,183.4,35.3Z"/>
    <path d="M923,916.6h0c-64,9.4-125.7,21.5-184.2,35.3,17,58.1,37.6,118.1,61.7,178,18.3-35.8,37.6-71.6,58.1-107.3,20.6-36.2,42.5-71.6,64.4-106Z"/>
    <path d="M1992.3,1023.9c-39.4-16.5-81.4-31.8-125.7-45.6-25,87.2-58.1,178-99.3,271,41.6,93.5,75.1,184.7,100.6,272.3,43.4-13.9,85.4-28.6,123.9-45.2h0c158.3-67.1,260.7-156.1,261.2-226.3,0-70.2-102.4-158.8-260.7-226.3Z"/>
    <path d="M2344.8,0H155.2C69.5,0,0,69.5,0,155.2v2189.7c0,85.7,69.5,155.2,155.2,155.2h2189.7c85.7,0,155.2-69.5,155.2-155.2V155.2c0-85.7-69.5-155.2-155.2-155.2ZM1893.9,1618.3c64.8,283.5,36.7,509.4-89,581.8-29.5,17-63.5,25-101.1,25-123,0-284-86.8-446.8-237.9-162.8,152.1-323.8,239.7-446.8,239.7s-71.6-8-100.6-25c-126.1-72.4-154.7-298.7-90.3-583.2-279.1-85.4-461.1-223.2-461.1-368.5s181.1-282.2,459.3-368.1c-64.8-283.5-36.7-509.4,89-581.8,29.5-17,63.5-25,101.1-25v-.4c123,0,284,86.8,446.8,237.9,162.8-152.1,323.8-239.7,446.8-239.7v.5c36.9,0,70.8,8.1,99.7,25,126.1,72.4,154.7,298.7,90.3,583.2,279.1,85.4,461.1,223.2,461.1,368.5h0c0,144.9-181.1,282.6-458.4,368.1Z"/>
    <path d="M642.1,978.8c-43.4,13.9-85.4,28.6-123.9,45.2-158.3,67.1-260.7,156.1-260.7,226.3s102.4,158.8,260.7,226.3h0c38.9,16.5,80.9,31.8,125.2,45.6,25-87.2,58.1-178,99.3-271-41.6-93.5-75.1-184.7-100.6-272.3Z"/>
    <path d="M1796.4,1644.7c-87.7,21.9-183.4,38.5-284.4,49.2-59.5,82.7-122.1,157.4-184.7,223.2,145.8,134.6,283.1,208.4,375.7,208.4s38-3.6,51.4-11.6c60.4-35.3,86.3-168.1,65.3-339-4.9-41.6-13-85-23.3-130.1Z"/>
    <path d="M715,1645.6c-9.8,45.2-17.9,89.4-22.8,131.5-20.6,170.8,5.8,303.7,66.6,338.5h0c13.4,7.6,30.4,11.6,50.5,12.1,93,0,229.9-74.2,375.7-209.7-63.1-65.7-125.7-140.9-186-223.6-100.6-10.7-196.3-27.3-284-48.7Z"/>
    <path d="M1254.8,1707.3c-41.6,0-82.7-1.3-123-3.1,41.1,52.3,82.7,100.2,124.3,143.1,41.1-42.9,82.7-90.8,123-143.1-40.7,2.2-82.3,3.1-124.3,3.1Z"/>
  </g>
</svg>