<?xml version="1.0" encoding="UTF-8"?>
<svg id="Calque_1" xmlns="http://www.w3.org/2000/svg" version="1.1" viewBox="0 0 707 707">
  <!-- Generator: Adobe Illustrator 29.2.1, SVG Export Plug-In . SVG Version: 2.1.0 Build 116)  -->
  <defs>
    <style>
      .st0 {
        fill: #070707;
      }
    </style>
  </defs>
  <path class="st0" d="M448.5,399.6c-1,46.8,39.3,79.1,84.5,65.5v-131.5c-42.9-11.9-84.5,20.8-84.5,66Z"/>
  <path d="M686.2,89.9c-15.2-29.8-39.4-54-69.2-69.2C583.2,3.5,538.8,3.5,450.2,3.5h-193.3c-88.7,0-133,0-166.9,17.3-29.8,15.2-54,39.4-69.2,69.2C3.5,123.8,3.5,168.2,3.5,256.8v193.3c0,88.7,0,133,17.3,166.9,15.2,29.8,39.4,54,69.2,69.2,33.9,17.3,78.2,17.3,166.9,17.3h193.3c88.7,0,133,0,166.9-17.3,29.8-15.2,54-39.4,69.2-69.2,17.3-33.9,17.3-78.2,17.3-166.9v-193.3c0-88.7,0-133-17.3-166.9h0ZM372.9,518.6h-66.7c-4.7,0-8-.2-9.9-3.4-6.3-12.5-12.5-25-18.8-37.3-6.3-12.4-12.9-25-20-37.8-7-12.8-14-25.8-20.9-39-6.3,12.8-13.2,25.7-20,38.5-6.7,12.8-13.4,25.6-20,38.3-6.6,12.7-13.3,25.3-20.2,37.8-1.3,2.9-3.4,3.2-6.6,3.2h-64.3c-2.5,0-2.8-1.9-1.4-4.1l90.6-152.7-88.3-153.2c-1.6-2.2-.2-4.5,2.3-4.3h66.2c2.9-.2,5.4.9,7,3.4,5.6,12.8,11.9,25.7,18.8,38.5,6.9,12.8,13.8,25.5,20.9,38,7,12.5,14,25.2,20,38,6.3-13.2,12.6-26,19-38.5,6.4-12.5,13-25.1,19.7-37.8s13.2-25.3,19.5-37.8c.8-2.7,2.8-4.1,5.6-3.9h61.5c2.3,0,3.3,3.2,2.3,4.8l-87.3,147.9,93.4,157c1.9,3.6,0,4.3-2.8,4.3h.4ZM596.9,506c-29.2,12.5-60.9,18.6-92.5,18.8-41.4.6-84.8-16.4-106.6-54.2-10.6-18.1-16-40.9-16-68.2-.2-22.1,5.3-43.9,16-63.1,27.4-49.1,82.7-67.4,135.2-62.6v-94.9c0-2.2.9-3.4,2.8-3.4h59.2c1.6-.2,3,1.2,2.8,2.9v284.6c0,11.7,1.2,23.4,1.9,35.2,0,2-1,4-2.8,4.8h0Z"/>
</svg>